<?xml version="1.0" encoding="UTF-8" standalone="no"?>
<svg
   xmlns:dc="http://purl.org/dc/elements/1.1/"
   xmlns:cc="http://creativecommons.org/ns#"
   xmlns:rdf="http://www.w3.org/1999/02/22-rdf-syntax-ns#"
   xmlns:svg="http://www.w3.org/2000/svg"
   xmlns="http://www.w3.org/2000/svg"
   xmlns:sodipodi="http://sodipodi.sourceforge.net/DTD/sodipodi-0.dtd"
   xmlns:inkscape="http://www.inkscape.org/namespaces/inkscape"
   id="svg2"
   version="1.1"
   inkscape:version="0.91 r13725"
   sodipodi:docname="google-scholar.svg"
   width="24"
   height="24">
  <metadata
     id="metadata10">
    <rdf:RDF>
      <cc:Work
         rdf:about="">
        <dc:format>image/svg+xml</dc:format>
        <dc:type
           rdf:resource="http://purl.org/dc/dcmitype/StillImage" />
        <dc:title />
      </cc:Work>
    </rdf:RDF>
  </metadata>
  <defs
     id="defs8" />
  <sodipodi:namedview
     pagecolor="#ffffff"
     bordercolor="#666666"
     borderopacity="1"
     objecttolerance="10"
     gridtolerance="10"
     guidetolerance="10"
     inkscape:pageopacity="0"
     inkscape:pageshadow="2"
     inkscape:window-width="1287"
     inkscape:window-height="744"
     id="namedview6"
     showgrid="false"
     fit-margin-top="0"
     fit-margin-left="0"
     fit-margin-right="0"
     fit-margin-bottom="0"
     inkscape:zoom="6.675088"
     inkscape:cx="-8.7837874"
     inkscape:cy="14.157816"
     inkscape:window-x="81"
     inkscape:window-y="24"
     inkscape:window-maximized="1"
     inkscape:current-layer="svg2" />
  <path
     d="m 19.822814,6.0197236 0,-1.4183412 1.029424,-0.803658 -11.140104,0 -6.7269393,5.8475811 4.4612566,0 c -0.00833,0.1106749 -0.011417,0.2107499 -0.011417,0.3242498 0,1.0856667 0.3759999,1.9836837 1.1287496,2.7010907 0.7527497,0.718592 1.6797491,1.075408 2.7774241,1.075408 0.256408,0 0.507841,-0.01917 0.752,-0.05333 -0.151417,0.338583 -0.22785,0.652233 -0.22785,0.944908 0,0.514333 0.234341,1.064083 0.701416,1.648008 -2.043424,0.139091 -3.5448486,0.506908 -4.5019232,1.102249 -0.5484915,0.338492 -0.9895913,0.765833 -1.3224162,1.277666 -0.3328415,0.515583 -0.4988414,1.0685 -0.4988414,1.664666 0,0.502508 0.1074166,0.955 0.3239082,1.357408 0.2164999,0.402408 0.4988414,0.732841 0.8495996,0.98875 0.3499082,0.258741 0.7535914,0.474008 1.2093245,0.649416 0.4549082,0.174158 0.9065825,0.297842 1.3573415,0.367842 0.449325,0.06992 0.896083,0.104091 1.338841,0.104091 0.701508,0 1.403833,-0.09032 2.111832,-0.270158 0.706333,-0.181492 1.368758,-0.450075 1.988075,-0.806916 0.617674,-0.354417 1.120591,-0.837833 1.506341,-1.443658 0.384916,-0.608333 0.577849,-1.291925 0.577849,-2.048758 0,-0.573741 -0.117175,-1.095758 -0.351574,-1.569824 -0.232742,-0.4725 -0.5176,-0.861516 -0.856908,-1.16375 -0.338584,-0.302741 -0.677083,-0.581016 -1.016417,-0.831666 -0.338583,-0.252333 -0.625008,-0.507841 -0.857749,-0.7715 -0.233584,-0.262849 -0.35075,-0.523658 -0.35075,-0.780416 0,-0.256325 0.09032,-0.503741 0.271658,-0.743 0.179917,-0.240083 0.399675,-0.471249 0.65675,-0.693008 0.257166,-0.221325 0.514341,-0.467074 0.770666,-0.736091 0.256325,-0.268083 0.476075,-0.616008 0.65675,-1.042092 0.181491,-0.426 0.271,-0.908591 0.271,-1.4456658 0,-0.7006664 -0.132667,-1.2739995 -0.393092,-1.7350826 -0.03092,-0.05325 -0.06342,-0.093925 -0.09767,-0.1574083 l 2.963932,-2.4308407 0,0.8915913 c -0.385092,0.048417 -0.345008,0.2784332 -0.345008,0.5539165 l 0,6.7014146 c 0,0.310333 0.253908,0.564266 0.564258,0.564266 l 0.20775,0 c 0.310324,0 0.564258,-0.253916 0.564258,-0.564266 l 0,-6.7014146 c 0,-0.2748249 0.0405,-0.5045832 -0.34175,-0.5536665 z M 14.231149,17.607153 c 0.05942,0.03908 0.192909,0.144833 0.402,0.3145 0.210909,0.168916 0.354008,0.296658 0.4305,0.386166 0.07492,0.08665 0.186417,0.216925 0.332092,0.393083 0.146491,0.175759 0.24575,0.328333 0.297841,0.454908 0.05208,0.129 0.105,0.284425 0.158667,0.465917 0.05133,0.179425 0.07733,0.363333 0.07733,0.550091 0,0.887917 -0.341841,1.545833 -1.02375,1.971825 -0.683599,0.426091 -1.498257,0.639258 -2.444674,0.639258 -0.478491,0 -0.948074,-0.05692 -1.409499,-0.166409 C 10.591075,22.506251 10.149992,22.338559 9.729242,22.116393 9.3084922,21.894634 8.9700007,21.584968 8.7135841,21.189485 8.4564092,20.791568 8.327826,20.33456 8.327826,19.822318 c 0,-0.537508 0.1456749,-1.004674 0.4386665,-1.401349 0.2913248,-0.397166 0.6738415,-0.697491 1.1474995,-0.901841 0.472,-0.205509 0.9505,-0.351158 1.435509,-0.437408 0.485008,-0.08866 0.978999,-0.133075 1.481166,-0.133075 0.232741,0 0.413324,0.01308 0.541908,0.03625 0.02367,0.01142 0.157908,0.107825 0.402841,0.289749 0.245,0.180334 0.397167,0.291417 0.45575,0.3325 z m -0.174908,-5.238432 c -0.385758,0.461425 -0.923674,0.6921 -1.612174,0.6921 -0.617667,0 -1.161333,-0.248175 -1.628408,-0.745416 -0.468742,-0.495991 -0.80325,-1.05875 -1.007509,-1.6891 C 9.603075,9.995647 9.500559,9.3771306 9.500559,8.7696475 c 0,-0.7132414 0.187258,-1.3204078 0.5615,-1.821666 0.374341,-0.5025831 0.911416,-0.7544163 1.61135,-0.7544163 0.618491,0 1.165324,0.2624082 1.637349,0.7894163 0.473658,0.5252498 0.812991,1.1152579 1.0165,1.769166 0.204258,0.6530831 0.305908,1.2775915 0.305908,1.8741575 0,0.70035 -0.192842,1.281767 -0.576908,1.742416 z"
     id="path4"
     inkscape:connector-curvature="0"
     style="fill:#ffffff;fill-opacity:1" />
</svg>
